<svg width="358" height="333" viewBox="0 0 358 333" fill="none" xmlns="http://www.w3.org/2000/svg">
<path d="M155.444 290.818C174.915 290.818 190.699 281.704 190.699 270.462C190.699 259.22 174.915 250.106 155.444 250.106C135.972 250.106 120.188 259.22 120.188 270.462C120.188 281.704 135.972 290.818 155.444 290.818Z" fill="#E0E0E0"/>
<path d="M215.215 309.72C238.791 309.72 257.903 298.686 257.903 285.075C257.903 271.464 238.791 260.431 215.215 260.431C191.639 260.431 172.527 271.464 172.527 285.075C172.527 298.686 191.639 309.72 215.215 309.72Z" fill="#E0E0E0"/>
<path d="M167.544 262.672C167.544 260.882 166.37 259.092 164.007 257.739C159.288 255.011 151.634 255.011 146.916 257.739C144.553 259.099 143.372 260.889 143.372 262.672V268.192C143.372 269.982 144.553 271.772 146.916 273.133C151.634 275.853 159.288 275.853 164.007 273.133C166.37 271.765 167.544 269.982 167.544 268.192V262.672Z" fill="#263238"/>
<path d="M164.036 263.259C168.754 265.987 168.754 270.419 164.036 273.133C159.317 275.846 151.663 275.853 146.945 273.133C142.226 270.412 142.219 265.973 146.945 263.259C151.67 260.545 159.317 260.538 164.036 263.259Z" fill="#37474F"/>
<path d="M167.573 262.672H143.401V268.192H167.573V262.672Z" fill="#37474F"/>
<path d="M164.036 257.76C168.754 260.481 168.754 264.92 164.036 267.626C159.317 270.333 151.663 270.354 146.945 267.626C142.226 264.899 142.219 260.466 146.945 257.76C151.67 255.054 159.317 255.011 164.036 257.76Z" fill="#455A64"/>
<path d="M159.511 258.992C161.737 260.273 161.737 262.357 159.511 263.638C158.263 264.271 156.885 264.6 155.487 264.6C154.089 264.6 152.71 264.271 151.463 263.638C149.243 262.357 149.243 260.273 151.463 258.992C152.71 258.359 154.089 258.03 155.487 258.03C156.885 258.03 158.263 258.359 159.511 258.992Z" fill="#263238"/>
<path d="M161.179 157.098H149.794V261.319H161.179V157.098Z" fill="#263238"/>
<path d="M201.976 108.968V108.889C201.869 108.295 201.74 107.694 201.59 107.092C201.61 107.156 201.627 107.22 201.64 107.285C201.547 106.877 201.439 106.469 201.325 106.061C201.368 106.211 201.404 106.362 201.439 106.512C201.325 106.061 201.196 105.617 201.06 105.166C201.124 105.359 201.189 105.56 201.239 105.753C201.167 105.495 201.089 105.238 201.01 104.98L200.881 104.572V104.515V104.558C199.919 101.638 198.652 98.8272 197.1 96.1732C197.05 96.0801 197 95.987 196.943 95.8939C193.041 89.2566 187.384 83.1921 181.069 79.4259L180.761 79.2397C178.95 78.188 177.03 77.338 175.033 76.7051C173.374 76.1803 171.647 75.9029 169.907 75.8817H169.305H168.94C168.639 75.8817 168.346 75.939 168.06 75.982H167.795L167.308 76.075C167.1 76.118 166.892 76.1681 166.692 76.2254L166.133 76.3901C166.133 76.3901 166.133 76.3901 166.098 76.3901L165.539 76.5906C165.353 76.6693 165.167 76.7481 164.995 76.834L163.764 77.55L101.751 113.35H101.701C98.3426 115.233 96.3092 119.078 96.3092 124.541V158.272L72.9747 171.16C70.663 172.434 68.7313 174.3 67.3773 176.566C66.0233 178.832 65.2955 181.417 65.2686 184.056C65.2416 186.696 65.9164 189.295 67.2239 191.589C68.5314 193.882 70.4246 195.786 72.7098 197.108C79.2078 200.856 86.5773 202.829 94.0788 202.829C101.58 202.829 108.95 200.856 115.448 197.108L139.62 183.504L202.435 147.21V113.472C202.417 111.96 202.263 110.453 201.976 108.968Z" fill="#5C6B82"/>
<path d="M100.677 155.931V118.247L140.572 95.4357L144.167 130.276L100.677 155.931Z" fill="#5C6B82"/>
<path opacity="0.5" d="M100.677 155.931V118.247L140.572 95.4357L144.167 130.276L100.677 155.931Z" fill="black"/>
<path d="M100.677 155.931L144.167 130.276V171.282L135.174 175.85L100.677 155.931Z" fill="#5C6B82"/>
<path opacity="0.3" d="M100.677 155.931L144.167 130.276V171.282L135.174 175.85L100.677 155.931Z" fill="black"/>
<path d="M201.984 108.968L197.859 111.238L172.757 124.978L168.217 127.448L136.842 144.632C134.851 141.267 129.682 125.565 126.925 122.722C124.27 119.929 121.238 117.52 117.918 115.562C113.98 113.285 110.293 112.204 107.106 112.204C105.232 112.166 103.378 112.607 101.722 113.486L163.742 77.686L164.974 76.97C165.145 76.8841 165.332 76.8053 165.518 76.7265L166.076 76.5261C166.076 76.5261 166.076 76.5261 166.112 76.5261L166.671 76.3614C166.871 76.3041 167.079 76.254 167.286 76.211L167.773 76.1179H168.038C168.324 76.075 168.618 76.0392 168.919 76.0177H169.284H169.885C171.625 76.0389 173.353 76.3163 175.012 76.8411C177.008 77.474 178.929 78.324 180.74 79.3757L181.048 79.5619C191.423 85.6121 200.029 98.0061 201.984 108.968Z" fill="#5C6B82"/>
<g opacity="0.3">
<path d="M201.984 108.968L197.86 111.238L172.757 124.978L168.217 127.448L136.842 144.632C134.852 141.267 129.682 125.565 126.926 122.722C124.27 119.929 121.238 117.52 117.918 115.562C113.98 113.285 110.293 112.204 107.107 112.204C105.232 112.166 103.379 112.607 101.722 113.486L163.742 77.686L164.974 76.97C165.146 76.8841 165.332 76.8053 165.518 76.7265L166.076 76.5261C166.076 76.5261 166.076 76.5261 166.112 76.5261L166.671 76.3614C166.871 76.3041 167.079 76.254 167.287 76.211L167.773 76.1179H168.038C168.325 76.075 168.618 76.0392 168.919 76.0177H169.284H169.886C171.626 76.0389 173.353 76.3163 175.012 76.8411C177.008 77.474 178.929 78.324 180.74 79.3757L181.048 79.5619C191.423 85.6121 200.029 98.0061 201.984 108.968Z" fill="black"/>
</g>
<path d="M196.9 95.9441C196.957 96.03 197.015 96.1231 197.065 96.2162C197.036 96.1016 196.986 96.0085 196.9 95.9441Z" fill="#5C6B82"/>
<path d="M200.23 102.746C201.006 104.761 201.593 106.844 201.984 108.968L197.86 111.238L172.757 124.978L168.217 127.448L136.842 144.632L139.62 183.504L202.435 147.21V113.472C202.351 109.793 201.604 106.159 200.23 102.746Z" fill="#5C6B82"/>
<path d="M199.299 100.498C199.034 99.9106 198.754 99.3164 198.461 98.7292C198.754 99.3164 199.048 99.9106 199.299 100.498Z" fill="#5C6B82"/>
<path d="M197.373 96.66C197.673 97.2042 197.974 97.7483 198.253 98.2997C197.974 97.777 197.68 97.2328 197.373 96.66Z" fill="#5C6B82"/>
<g opacity="0.5">
<path d="M196.9 95.9441C196.957 96.03 197.015 96.1231 197.065 96.2162C197.036 96.1016 196.986 96.0085 196.9 95.9441Z" fill="black"/>
<path d="M200.23 102.746C201.006 104.761 201.593 106.844 201.984 108.968L197.86 111.238L172.757 124.978L168.217 127.448L136.842 144.632L139.62 183.504L202.435 147.21V113.472C202.351 109.793 201.604 106.16 200.23 102.746Z" fill="black"/>
<path d="M199.299 100.498C199.034 99.9108 198.754 99.3165 198.461 98.7294C198.754 99.3165 199.048 99.9108 199.299 100.498Z" fill="black"/>
<path d="M197.373 96.66C197.674 97.2042 197.974 97.7483 198.253 98.2997C197.974 97.777 197.681 97.2328 197.373 96.66Z" fill="black"/>
</g>
<path d="M107.106 116.658C109.605 116.658 112.584 117.61 115.698 119.422C126.245 125.508 135.159 139.405 135.159 149.773V175.85L100.662 155.931V124.749C100.662 118.061 104.157 116.658 107.106 116.658ZM107.106 112.233C100.619 112.233 96.259 116.722 96.259 124.749V158.479L139.591 183.539V149.773C139.591 137.801 129.89 122.5 117.925 115.591C113.987 113.321 110.285 112.233 107.106 112.233Z" fill="#5C6B82"/>
<path d="M96.2591 158.479L72.9247 171.367C70.6129 172.642 68.6812 174.507 67.3272 176.773C65.9732 179.039 65.2455 181.624 65.2186 184.264C65.1916 186.904 65.8664 189.503 67.1738 191.796C68.4813 194.089 70.3745 195.994 72.6598 197.315C79.1577 201.064 86.5273 203.037 94.0288 203.037C101.53 203.037 108.9 201.064 115.398 197.315L139.62 183.504L96.2591 158.479Z" fill="#5C6B82"/>
<path opacity="0.2" d="M96.2591 158.479L72.9247 171.367C70.6129 172.642 68.6812 174.507 67.3272 176.773C65.9732 179.039 65.2455 181.624 65.2186 184.264C65.1916 186.904 65.8664 189.503 67.1738 191.796C68.4813 194.089 70.3745 195.994 72.6598 197.315C79.1577 201.064 86.5273 203.037 94.0288 203.037C101.53 203.037 108.9 201.064 115.398 197.315L139.62 183.504L96.2591 158.479Z" fill="white"/>
<path d="M154.048 173.229L149.179 176.036V129.03L154.048 126.217V173.229Z" fill="#E0E0E0"/>
<path d="M163.241 130.305L149.179 138.417V129.03L163.241 120.911V130.305Z" fill="#E0E0E0"/>
<path d="M156.145 171.575C156.059 173.16 155.601 174.703 154.807 176.077C154.014 177.452 152.907 178.62 151.577 179.487C149.05 180.919 147.002 179.766 147.002 176.852C147.094 175.272 147.555 173.736 148.35 172.368C149.145 171 150.25 169.838 151.577 168.976C154.098 167.48 156.145 168.661 156.145 171.575Z" fill="#5C6B82"/>
<path opacity="0.2" d="M156.145 171.575C156.059 173.16 155.601 174.703 154.807 176.077C154.014 177.452 152.907 178.62 151.577 179.487C149.05 180.919 147.002 179.766 147.002 176.852C147.094 175.272 147.555 173.736 148.35 172.368C149.145 171 150.25 169.838 151.577 168.976C154.098 167.48 156.145 168.661 156.145 171.575Z" fill="black"/>
<path d="M157.663 172.456C157.572 174.035 157.112 175.57 156.318 176.938C155.525 178.307 154.421 179.469 153.095 180.332C150.575 181.764 148.527 180.604 148.527 177.69C148.615 176.105 149.074 174.563 149.867 173.189C150.661 171.814 151.767 170.646 153.095 169.778C155.623 168.36 157.663 169.542 157.663 172.456Z" fill="#5C6B82"/>
<path d="M259.707 249.884L267.784 254.567C267.784 254.567 263.703 241.543 265.965 228.447C266.817 223.507 268.622 221.051 269.252 219.726C269.882 218.402 274.765 210.239 270.469 206.473C266.173 202.707 256.113 210.196 256.564 230.373C256.786 236.983 257.842 243.539 259.707 249.884Z" fill="#5C6B82"/>
<path opacity="0.3" d="M259.707 249.884L267.784 254.567C267.784 254.567 263.703 241.543 265.965 228.447C266.817 223.507 268.622 221.051 269.252 219.726C269.882 218.402 274.765 210.239 270.469 206.473C266.173 202.707 256.113 210.196 256.564 230.373C256.786 236.983 257.842 243.539 259.707 249.884Z" fill="black"/>
<path d="M263.488 252.419C263.415 252.417 263.344 252.393 263.284 252.351C263.224 252.309 263.178 252.25 263.152 252.182C263.152 252.096 260.066 243.59 260.223 229.986C260.381 216.382 267.584 208.993 267.655 208.922C267.723 208.854 267.814 208.816 267.909 208.816C268.005 208.816 268.096 208.854 268.164 208.922C268.231 208.989 268.269 209.081 268.269 209.176C268.269 209.271 268.231 209.363 268.164 209.43C268.092 209.502 261.104 216.59 260.946 229.994C260.789 243.397 263.81 251.839 263.81 251.925C263.843 252.014 263.838 252.112 263.798 252.198C263.757 252.284 263.685 252.351 263.595 252.383C263.562 252.402 263.526 252.414 263.488 252.419Z" fill="white"/>
<path d="M265.972 253.543L279.326 261.419C279.326 261.419 285.441 260.517 284.982 254.76C284.524 249.003 282.032 247.643 285.125 245.116C288.219 242.588 289.021 242.423 288.87 239.939C288.72 237.454 287.059 236.359 286.271 235.399C285.483 234.44 283.3 232.356 284.839 229.364C286.378 226.371 288.462 223.485 285.369 222.118C283.514 221.301 280.407 222.325 278.352 224.509C276.297 226.693 274.586 228.275 272.624 228.805C270.662 229.335 266.603 229.349 266.739 232.714C266.875 236.08 267.748 237.24 266.932 238.729C265.407 241.5 258.841 243.018 265.972 253.543Z" fill="#5C6B82"/>
<path d="M271.414 257.101C271.323 257.101 271.235 257.067 271.168 257.004C271.102 256.942 271.062 256.856 271.056 256.765C271.056 256.564 269.581 236.659 283.414 223.585C283.447 223.545 283.488 223.512 283.534 223.488C283.58 223.465 283.631 223.451 283.683 223.449C283.735 223.447 283.787 223.456 283.835 223.475C283.883 223.494 283.927 223.524 283.963 223.561C283.999 223.599 284.026 223.643 284.043 223.692C284.061 223.741 284.067 223.793 284.063 223.845C284.058 223.897 284.043 223.947 284.017 223.993C283.992 224.038 283.957 224.077 283.915 224.108C270.311 236.939 271.743 256.514 271.743 256.707C271.751 256.803 271.721 256.898 271.66 256.972C271.598 257.046 271.51 257.092 271.414 257.101Z" fill="white"/>
<path d="M273.805 240.032C273.715 240.032 273.628 239.998 273.562 239.937C273.496 239.876 273.455 239.792 273.447 239.703C273.342 238.172 272.928 236.68 272.23 235.314C271.532 233.948 270.565 232.737 269.388 231.755C269.35 231.727 269.317 231.692 269.293 231.652C269.268 231.612 269.252 231.567 269.245 231.521C269.237 231.474 269.239 231.427 269.25 231.381C269.261 231.335 269.281 231.292 269.309 231.254C269.337 231.216 269.372 231.183 269.412 231.159C269.452 231.134 269.497 231.118 269.543 231.111C269.59 231.103 269.637 231.105 269.683 231.116C269.729 231.127 269.772 231.147 269.81 231.175C271.083 232.209 272.127 233.496 272.877 234.954C273.628 236.411 274.068 238.009 274.171 239.645C274.175 239.693 274.169 239.741 274.154 239.786C274.139 239.832 274.115 239.873 274.084 239.909C274.053 239.946 274.014 239.975 273.971 239.996C273.928 240.017 273.882 240.029 273.834 240.032H273.805Z" fill="white"/>
<path d="M272.796 243.44C272.706 243.442 272.618 243.409 272.552 243.347C272.519 243.314 272.492 243.274 272.474 243.231C272.456 243.187 272.447 243.14 272.447 243.093C272.447 243.046 272.456 242.999 272.474 242.955C272.492 242.912 272.519 242.872 272.552 242.839C272.696 242.674 276.175 238.915 284.223 240.018C284.318 240.032 284.404 240.082 284.463 240.158C284.522 240.234 284.549 240.33 284.538 240.426C284.524 240.52 284.473 240.605 284.397 240.663C284.321 240.721 284.225 240.746 284.13 240.734C276.455 239.681 273.125 243.283 273.089 243.318C273.053 243.359 273.007 243.392 272.957 243.413C272.906 243.434 272.851 243.443 272.796 243.44Z" fill="white"/>
<path d="M112.663 136.419C112.026 136.419 111.381 136.419 110.751 136.341C110.664 136.334 110.579 136.311 110.502 136.271C110.424 136.232 110.355 136.177 110.299 136.11C110.243 136.043 110.201 135.966 110.175 135.882C110.149 135.799 110.141 135.711 110.15 135.625C110.166 135.451 110.25 135.29 110.384 135.177C110.518 135.065 110.691 135.009 110.866 135.023C111.715 135.102 112.569 135.123 113.422 135.088C113.595 135.086 113.763 135.151 113.89 135.27C114.017 135.388 114.093 135.551 114.102 135.725C114.108 135.898 114.045 136.067 113.927 136.195C113.809 136.322 113.645 136.398 113.472 136.405C113.193 136.419 112.928 136.419 112.663 136.419ZM116.057 136.147C115.889 136.15 115.727 136.089 115.603 135.977C115.479 135.865 115.403 135.709 115.389 135.543C115.375 135.376 115.426 135.21 115.53 135.079C115.634 134.948 115.784 134.862 115.949 134.837C116.789 134.7 117.619 134.506 118.434 134.257C118.598 134.216 118.772 134.239 118.919 134.323C119.067 134.407 119.176 134.544 119.225 134.706C119.274 134.868 119.259 135.043 119.182 135.194C119.105 135.345 118.973 135.461 118.813 135.517C117.945 135.785 117.06 135.993 116.164 136.14L116.057 136.147ZM108.181 135.961H108.052C107.166 135.771 106.291 135.532 105.431 135.245C105.266 135.188 105.129 135.069 105.05 134.912C104.971 134.756 104.956 134.575 105.009 134.408C105.066 134.242 105.186 134.106 105.342 134.028C105.499 133.95 105.68 133.938 105.846 133.992C106.656 134.26 107.481 134.479 108.317 134.651C108.402 134.668 108.483 134.702 108.554 134.75C108.626 134.799 108.688 134.862 108.735 134.934C108.782 135.007 108.815 135.088 108.83 135.174C108.846 135.259 108.844 135.347 108.825 135.431C108.796 135.578 108.717 135.711 108.603 135.807C108.488 135.903 108.345 135.958 108.195 135.961H108.181ZM121.069 134.594C120.919 134.594 120.774 134.544 120.657 134.451C120.539 134.358 120.458 134.228 120.424 134.082C120.391 133.936 120.408 133.783 120.473 133.648C120.538 133.514 120.647 133.405 120.782 133.341L121.24 133.119C121.318 133.075 121.404 133.047 121.492 133.037C121.581 133.028 121.67 133.036 121.755 133.062C121.841 133.088 121.92 133.13 121.988 133.188C122.056 133.245 122.112 133.315 122.152 133.395C122.192 133.474 122.216 133.561 122.222 133.65C122.228 133.739 122.215 133.828 122.186 133.912C122.156 133.996 122.109 134.073 122.049 134.138C121.989 134.204 121.916 134.256 121.835 134.293L121.348 134.536C121.266 134.579 121.175 134.603 121.083 134.608L121.069 134.594ZM103.169 134.314C103.072 134.314 102.977 134.292 102.889 134.25C102.072 133.869 101.276 133.444 100.505 132.976C100.431 132.929 100.367 132.867 100.317 132.796C100.267 132.724 100.231 132.643 100.212 132.558C100.194 132.472 100.192 132.384 100.207 132.298C100.222 132.212 100.254 132.129 100.301 132.055C100.348 131.982 100.409 131.918 100.481 131.868C100.552 131.817 100.633 131.782 100.719 131.763C100.804 131.744 100.893 131.742 100.979 131.757C101.065 131.772 101.147 131.804 101.221 131.851C101.953 132.293 102.708 132.695 103.484 133.054C103.616 133.121 103.722 133.23 103.786 133.364C103.849 133.497 103.866 133.648 103.834 133.793C103.802 133.937 103.723 134.067 103.609 134.162C103.495 134.256 103.352 134.31 103.204 134.314H103.169ZM98.6578 131.594C98.5167 131.59 98.3797 131.546 98.264 131.465C97.548 130.935 96.832 130.355 96.1876 129.739C96.1237 129.681 96.0718 129.611 96.0351 129.532C95.9983 129.454 95.9773 129.369 95.9733 129.283C95.9694 129.196 95.9824 129.11 96.0118 129.029C96.0412 128.947 96.0863 128.872 96.1446 128.808C96.2029 128.744 96.2733 128.693 96.3516 128.656C96.4299 128.619 96.5147 128.598 96.6011 128.594C96.6876 128.59 96.7739 128.603 96.8553 128.633C96.9367 128.662 97.0115 128.707 97.0754 128.765C97.7198 129.353 98.3857 129.904 99.0588 130.412C99.168 130.496 99.2482 130.612 99.2882 130.744C99.3282 130.875 99.3259 131.016 99.2816 131.147C99.2374 131.277 99.1534 131.39 99.0415 131.47C98.9297 131.551 98.7954 131.594 98.6578 131.594ZM94.7699 128.049C94.6782 128.05 94.5875 128.031 94.5036 127.994C94.4197 127.957 94.3445 127.903 94.283 127.835C93.6888 127.183 93.1016 126.489 92.5575 125.773C92.5048 125.704 92.4662 125.626 92.4438 125.542C92.4214 125.458 92.4157 125.371 92.427 125.286C92.4499 125.112 92.5406 124.955 92.6792 124.849C92.8178 124.743 92.993 124.696 93.1662 124.718C93.3394 124.741 93.4965 124.832 93.6028 124.971C94.1255 125.687 94.684 126.317 95.2568 126.947C95.3151 127.011 95.3603 127.086 95.3897 127.167C95.4191 127.248 95.4321 127.335 95.4282 127.421C95.4242 127.508 95.4032 127.592 95.3664 127.671C95.3296 127.749 95.2778 127.819 95.2138 127.878C95.1014 127.98 94.9574 128.04 94.8057 128.049H94.7699ZM91.598 123.868C91.4874 123.868 91.3786 123.84 91.2821 123.786C91.1855 123.732 91.1045 123.654 91.0467 123.56C90.7603 123.116 90.4811 122.658 90.2162 122.2C90.0372 121.885 89.8582 121.562 89.6863 121.24C89.6206 121.088 89.6146 120.917 89.6694 120.761C89.7242 120.605 89.8358 120.475 89.9821 120.397C90.1283 120.319 90.2985 120.3 90.4586 120.342C90.6188 120.384 90.7572 120.485 90.8462 120.625C91.0109 120.932 91.1828 121.24 91.3546 121.541C91.6124 121.985 91.8773 122.422 92.1565 122.851C92.2187 122.952 92.2531 123.067 92.2562 123.185C92.2593 123.303 92.231 123.419 92.1742 123.523C92.1174 123.626 92.0341 123.713 91.9329 123.773C91.8316 123.834 91.7161 123.867 91.598 123.868ZM89.135 119.214C89.0054 119.214 88.8785 119.177 88.7702 119.105C88.6619 119.034 88.5771 118.932 88.5264 118.813C88.1756 117.982 87.8605 117.13 87.5884 116.286C87.5616 116.203 87.5513 116.117 87.558 116.03C87.5647 115.944 87.5884 115.86 87.6276 115.783C87.6668 115.706 87.7209 115.637 87.7866 115.581C87.8524 115.525 87.9286 115.482 88.0109 115.455C88.178 115.403 88.3588 115.419 88.5143 115.499C88.6697 115.58 88.7872 115.718 88.8414 115.885C89.0992 116.694 89.3999 117.503 89.7364 118.298C89.7808 118.397 89.7994 118.506 89.7906 118.615C89.7818 118.724 89.7458 118.829 89.6859 118.92C89.6261 119.011 89.5442 119.086 89.448 119.137C89.3517 119.189 89.2441 119.215 89.135 119.214ZM87.5312 114.202C87.3805 114.201 87.2347 114.148 87.1176 114.053C87.0005 113.958 86.9192 113.827 86.8868 113.679C86.6954 112.798 86.552 111.906 86.4572 111.009C86.4411 110.836 86.4938 110.664 86.6037 110.53C86.7136 110.396 86.8719 110.311 87.0443 110.293C87.1361 110.271 87.2317 110.271 87.3235 110.293C87.3716 110.204 87.4402 110.127 87.5236 110.07C87.607 110.013 87.7029 109.976 87.8032 109.963C88.6375 109.848 89.4611 109.666 90.2663 109.419C90.4334 109.367 90.6144 109.383 90.7695 109.464C90.9246 109.546 91.041 109.685 91.0933 109.852C91.1455 110.019 91.1292 110.2 91.0479 110.356C90.9667 110.511 90.8272 110.627 90.6601 110.679C89.7842 110.946 88.8889 111.145 87.9822 111.274C87.9276 111.281 87.8722 111.281 87.8176 111.274C87.9035 111.99 88.0252 112.706 88.1756 113.379C88.1944 113.463 88.1961 113.551 88.1807 113.636C88.1652 113.722 88.1329 113.803 88.0855 113.876C88.0382 113.948 87.9768 114.011 87.9049 114.06C87.8331 114.108 87.7523 114.142 87.6672 114.159C87.6249 114.183 87.5789 114.2 87.5312 114.209V114.202ZM85.2614 111.467C84.353 111.453 83.4465 111.379 82.5478 111.245C82.3763 111.218 82.2224 111.124 82.1197 110.984C82.0169 110.844 81.9735 110.669 81.999 110.498C82.0245 110.326 82.1167 110.171 82.2557 110.067C82.3947 109.963 82.5691 109.918 82.7411 109.942C83.5801 110.071 84.427 110.14 85.2758 110.149C85.4505 110.149 85.618 110.219 85.7415 110.342C85.8651 110.466 85.9345 110.633 85.9345 110.808C85.9345 110.983 85.8651 111.15 85.7415 111.274C85.618 111.397 85.4505 111.467 85.2758 111.467H85.2614ZM80.0633 110.694C80.0041 110.704 79.9435 110.704 79.8843 110.694C79.013 110.439 78.1592 110.128 77.3282 109.763C77.1677 109.693 77.0413 109.563 76.9769 109.401C76.9124 109.238 76.9152 109.057 76.9845 108.896C77.0538 108.736 77.184 108.61 77.3465 108.545C77.509 108.481 77.6904 108.483 77.8508 108.553C78.633 108.89 79.4367 109.174 80.2566 109.405C80.4237 109.455 80.5645 109.568 80.6489 109.721C80.7332 109.873 80.7543 110.053 80.7077 110.221C80.6661 110.36 80.581 110.481 80.4649 110.568C80.3488 110.654 80.208 110.701 80.0633 110.701V110.694ZM92.9012 109.741C92.7555 109.739 92.6147 109.688 92.501 109.597C92.3872 109.506 92.3069 109.38 92.2725 109.238C92.2381 109.097 92.2516 108.948 92.311 108.814C92.3703 108.681 92.4721 108.572 92.6004 108.503C93.3379 108.124 94.0298 107.663 94.6625 107.128C94.7952 107.015 94.967 106.958 95.1411 106.97C95.3152 106.982 95.4776 107.062 95.5933 107.192C95.6499 107.258 95.693 107.334 95.72 107.417C95.747 107.499 95.7575 107.586 95.7509 107.673C95.7442 107.759 95.7206 107.843 95.6812 107.921C95.6419 107.998 95.5877 108.067 95.5217 108.123C94.8161 108.73 94.0395 109.249 93.209 109.67C93.1142 109.72 93.0086 109.747 92.9012 109.748V109.741ZM86.9942 108.968C86.8188 108.964 86.652 108.891 86.53 108.765C86.408 108.639 86.3407 108.47 86.3426 108.295C86.357 107.389 86.4263 106.486 86.5502 105.589C86.5592 105.5 86.5859 105.415 86.6288 105.337C86.6717 105.259 86.7298 105.191 86.7997 105.136C86.8696 105.082 86.9499 105.042 87.0356 105.019C87.1214 104.996 87.2109 104.99 87.2987 105.003C87.3866 105.016 87.471 105.046 87.5469 105.092C87.6229 105.138 87.6887 105.199 87.7405 105.271C87.7923 105.343 87.829 105.425 87.8484 105.511C87.8678 105.598 87.8695 105.687 87.8534 105.775C87.7378 106.617 87.6732 107.466 87.66 108.316C87.6582 108.492 87.5872 108.659 87.4625 108.783C87.3378 108.906 87.1695 108.975 86.9942 108.975V108.968ZM75.2231 108.632C75.108 108.63 74.995 108.6 74.8938 108.546C74.1106 108.089 73.3551 107.587 72.6312 107.042C72.5615 106.991 72.5026 106.927 72.4582 106.853C72.4138 106.779 72.3847 106.697 72.3727 106.611C72.3607 106.526 72.366 106.439 72.3882 106.355C72.4105 106.272 72.4493 106.194 72.5023 106.126C72.5539 106.056 72.6188 105.997 72.6932 105.952C72.7676 105.908 72.8501 105.878 72.9359 105.866C73.0217 105.853 73.1092 105.857 73.1933 105.879C73.2774 105.9 73.3565 105.938 73.426 105.989C74.1108 106.512 74.8283 106.99 75.574 107.421C75.7007 107.493 75.8 107.605 75.8563 107.74C75.9126 107.874 75.9227 108.024 75.885 108.164C75.8474 108.305 75.7641 108.43 75.6482 108.518C75.5323 108.606 75.3904 108.654 75.2446 108.653L75.2231 108.632ZM96.789 106.283C96.6737 106.283 96.5602 106.254 96.4597 106.197C96.3849 106.153 96.3194 106.095 96.267 106.026C96.2146 105.958 96.1764 105.879 96.1544 105.795C96.1325 105.711 96.1273 105.624 96.1391 105.538C96.1509 105.452 96.1796 105.37 96.2234 105.295C96.4115 104.969 96.5696 104.626 96.696 104.271C96.8316 103.893 96.9136 103.498 96.9394 103.097C96.9447 103.009 96.9677 102.924 97.007 102.845C97.0462 102.767 97.1009 102.697 97.1678 102.64C97.2346 102.583 97.3123 102.54 97.3961 102.514C97.4799 102.488 97.5681 102.479 97.6554 102.488C97.7426 102.495 97.8278 102.518 97.9058 102.558C97.9838 102.597 98.0532 102.652 98.1098 102.719C98.1665 102.785 98.2093 102.863 98.2358 102.946C98.2622 103.029 98.2718 103.117 98.264 103.204C98.2262 103.722 98.1203 104.232 97.949 104.722C97.796 105.154 97.6043 105.571 97.3762 105.968C97.3155 106.069 97.2292 106.152 97.1261 106.208C97.0229 106.265 96.9066 106.293 96.789 106.29V106.283ZM71.013 105.467C70.8421 105.466 70.678 105.399 70.5548 105.281L70.118 104.837C69.6383 104.343 69.1729 103.82 68.729 103.276C68.6189 103.14 68.5672 102.966 68.5853 102.792C68.6034 102.618 68.6899 102.459 68.8257 102.349C68.9614 102.238 69.1354 102.187 69.3093 102.205C69.4832 102.223 69.6427 102.31 69.7529 102.445C70.1682 102.961 70.6121 103.455 71.0632 103.92L71.4713 104.336C71.5332 104.396 71.5824 104.469 71.616 104.549C71.6495 104.628 71.6668 104.714 71.6668 104.801C71.6668 104.888 71.6495 104.973 71.616 105.053C71.5824 105.133 71.5332 105.206 71.4713 105.266C71.3547 105.389 71.1962 105.463 71.0274 105.474L71.013 105.467ZM87.7388 103.763C87.6748 103.773 87.6095 103.773 87.5455 103.763C87.4627 103.737 87.3858 103.696 87.319 103.641C87.2522 103.586 87.197 103.518 87.1564 103.442C87.1159 103.365 87.0908 103.281 87.0826 103.195C87.0744 103.109 87.0833 103.022 87.1087 102.939C87.3737 102.041 87.7565 101.181 88.2472 100.383C88.3421 100.235 88.492 100.131 88.6639 100.093C88.8358 100.056 89.0155 100.088 89.1636 100.183C89.3118 100.278 89.4161 100.428 89.4537 100.599C89.4913 100.771 89.4591 100.951 89.3641 101.099C88.9343 101.799 88.5996 102.552 88.3689 103.34C88.3231 103.467 88.2393 103.576 88.1291 103.653C88.0189 103.73 87.8875 103.771 87.7531 103.77L87.7388 103.763ZM67.6908 101.386C67.581 101.386 67.4729 101.359 67.3765 101.306C67.2801 101.253 67.1986 101.177 67.1395 101.085C66.649 100.33 66.1974 99.5513 65.7862 98.7507C65.7065 98.595 65.6919 98.414 65.7456 98.2475C65.7993 98.081 65.9169 97.9426 66.0726 97.8629C66.2284 97.7831 66.4094 97.7685 66.5759 97.8222C66.7424 97.8759 66.8807 97.9936 66.9605 98.1493C67.3493 98.9107 67.7771 99.6515 68.2421 100.369C68.3064 100.468 68.3428 100.583 68.3474 100.701C68.352 100.82 68.3247 100.937 68.2682 101.041C68.2118 101.145 68.1284 101.232 68.0268 101.292C67.9252 101.353 67.8091 101.385 67.6908 101.386ZM97.1685 101.221C97.0381 101.221 96.9106 101.182 96.8022 101.109C96.6939 101.037 96.6096 100.933 96.5599 100.813C96.2859 100.111 95.8101 99.5051 95.1924 99.0729C95.0681 98.9696 94.9863 98.8241 94.9623 98.6643C94.9383 98.5045 94.9739 98.3415 95.0623 98.2062C95.1507 98.0709 95.2858 97.9729 95.4418 97.9307C95.5978 97.8885 95.7638 97.9052 95.9084 97.9774C96.7414 98.5557 97.3843 99.368 97.7556 100.312C97.7897 100.391 97.8076 100.476 97.8083 100.563C97.8091 100.649 97.7926 100.735 97.76 100.815C97.7273 100.895 97.6791 100.967 97.6182 101.028C97.5572 101.09 97.4846 101.138 97.4048 101.171C97.3347 101.203 97.2596 101.222 97.1828 101.228L97.1685 101.221ZM90.6028 99.4596C90.4958 99.4591 90.3904 99.4328 90.2957 99.3829C90.201 99.3331 90.1196 99.2611 90.0586 99.1732C90.0097 99.1017 89.9753 99.0213 89.9574 98.9366C89.9395 98.8518 89.9385 98.7644 89.9545 98.6793C89.9705 98.5942 90.0031 98.513 90.0504 98.4405C90.0978 98.368 90.159 98.3055 90.2305 98.2567C91.0504 97.6896 92.0019 97.342 92.9942 97.2471C93.083 97.2342 93.1734 97.2396 93.26 97.2628C93.3467 97.2861 93.4276 97.3268 93.4979 97.3825C93.5682 97.4381 93.6264 97.5076 93.669 97.5865C93.7115 97.6655 93.7375 97.7523 93.7453 97.8416C93.7531 97.9309 93.7426 98.0209 93.7144 98.1061C93.6862 98.1912 93.6409 98.2697 93.5813 98.3367C93.5218 98.4037 93.4491 98.4579 93.3678 98.4958C93.2866 98.5338 93.1984 98.5547 93.1088 98.5574C92.3361 98.6318 91.5959 98.9057 90.9608 99.3522C90.858 99.4192 90.7396 99.4586 90.6171 99.4667L90.6028 99.4596ZM65.2779 96.7101C65.1466 96.7094 65.0185 96.6695 64.9101 96.5955C64.8017 96.5215 64.7178 96.4168 64.6693 96.2948C64.3399 95.4714 64.0392 94.6194 63.7814 93.753C63.7519 93.669 63.7397 93.5799 63.7455 93.4911C63.7514 93.4022 63.7752 93.3155 63.8155 93.2361C63.8559 93.1567 63.9119 93.0863 63.9802 93.0292C64.0484 92.972 64.1276 92.9294 64.2129 92.9037C64.2981 92.878 64.3877 92.8699 64.4762 92.8798C64.5647 92.8897 64.6503 92.9175 64.7277 92.9614C64.8052 93.0053 64.8729 93.0645 64.9269 93.1353C64.9808 93.2062 65.0199 93.2872 65.0416 93.3736C65.2922 94.197 65.5786 95.0204 65.8936 95.808C65.955 95.9705 65.9504 96.1505 65.8808 96.3097C65.8113 96.4689 65.6823 96.5946 65.5213 96.66C65.4498 96.6948 65.3717 96.7143 65.2922 96.7173L65.2779 96.7101ZM63.7528 91.6981C63.6017 91.6981 63.4553 91.6461 63.338 91.551C63.2206 91.4558 63.1396 91.3232 63.1084 91.1754C62.9222 90.3091 62.7719 89.4212 62.6502 88.5262C62.6396 88.3596 62.6927 88.1952 62.7988 88.0662C62.9049 87.9373 63.0559 87.8534 63.2214 87.8316C63.387 87.8098 63.5546 87.8516 63.6905 87.9487C63.8263 88.0457 63.9203 88.1907 63.9533 88.3544C64.0678 89.2136 64.2182 90.0656 64.3972 90.9034C64.4332 91.0743 64.3999 91.2525 64.3046 91.3988C64.2093 91.5452 64.0597 91.6477 63.8888 91.6838L63.7528 91.6981ZM63.0368 86.4785C62.8686 86.477 62.7072 86.412 62.5851 86.2964C62.4629 86.1809 62.3889 86.0234 62.3781 85.8556C62.3781 85.1396 62.3208 84.4236 62.3208 83.7076V83.1562C62.3282 82.9828 62.4023 82.8188 62.5278 82.6987C62.6532 82.5786 62.8202 82.5117 62.9938 82.5118C63.0803 82.5118 63.1659 82.5291 63.2455 82.5629C63.3251 82.5966 63.3971 82.646 63.4573 82.7081C63.5174 82.7702 63.5644 82.8438 63.5955 82.9245C63.6266 83.0052 63.6411 83.0913 63.6382 83.1777V83.7076C63.6382 84.4236 63.6382 85.0823 63.6955 85.7625C63.7024 85.85 63.6918 85.938 63.6645 86.0214C63.6373 86.1048 63.5937 86.182 63.5365 86.2485C63.4793 86.3151 63.4095 86.3696 63.3311 86.4091C63.2527 86.4486 63.1673 86.4721 63.0798 86.4785H63.0368Z" fill="#263238"/>
<path d="M69.6382 62.5067L65.7002 79.6191L22.6973 70.3899L69.6382 62.5067Z" fill="#5C6B82"/>
<path opacity="0.3" d="M69.6382 62.5067L65.7002 79.6191L22.6973 70.3899L69.6382 62.5067Z" fill="black"/>
<path d="M22.6973 70.3899L76.2397 68.9579L88.8199 88.3472L22.6973 70.3899Z" fill="#5C6B82"/>
<path d="M22.6973 70.3899L69.6382 62.5068L58.576 49.676L22.6973 70.3899Z" fill="#5C6B82"/>
<path d="M209.194 248.704L197.864 248.415L197.279 271.355L208.609 271.644L209.194 248.704Z" fill="#EFD3BE"/>
<path d="M194.308 156.589C194.308 156.589 193.513 195.625 193.785 211.091C193.993 222.74 195.812 257.631 195.812 257.631C195.812 257.631 203.158 262.428 210.898 258.419C210.898 258.419 215.365 223.177 214.277 212.559C214.138 211.271 214.138 209.973 214.277 208.685L221.108 149.587L194.308 156.589Z" fill="#37474F"/>
<path d="M201.196 268.178C201.196 268.178 207.475 267.462 208.743 265.414V264.082C208.743 264.082 209.831 264.662 209.623 266.868C209.437 268.915 210.253 272.402 210.375 276.655C210.383 277.002 210.309 277.346 210.16 277.66C210.011 277.973 209.79 278.247 209.516 278.46C208.299 279.398 205.728 280.837 201.196 281.03C199.606 281.102 193.248 285.176 187.957 285.176C182.666 285.176 179.208 282.555 179.208 278.889C179.208 275.223 189.998 271.908 189.998 271.908L195.181 266.896C195.181 266.896 194.172 261.433 197.473 262.743C200.773 264.054 201.196 265.414 201.196 268.178Z" fill="#37474F"/>
<path d="M200.05 271.364C199.98 271.364 199.912 271.342 199.855 271.301C199.799 271.26 199.757 271.202 199.735 271.135C198.633 267.834 195.189 267.225 195.153 267.218C195.11 267.211 195.069 267.196 195.032 267.173C194.995 267.15 194.963 267.12 194.938 267.085C194.913 267.05 194.895 267.01 194.885 266.968C194.875 266.925 194.874 266.882 194.881 266.839C194.897 266.753 194.945 266.677 195.016 266.626C195.086 266.576 195.174 266.554 195.26 266.567C196.414 266.792 197.49 267.311 198.383 268.076C199.277 268.84 199.957 269.822 200.358 270.927C200.385 271.01 200.379 271.1 200.34 271.178C200.301 271.255 200.233 271.315 200.151 271.342L200.05 271.364Z" fill="#FAFAFA"/>
<path d="M197.981 273.412C197.912 273.41 197.844 273.387 197.788 273.346C197.732 273.305 197.689 273.248 197.666 273.183C196.571 269.896 193.12 269.273 193.084 269.266C193.041 269.259 193 269.244 192.964 269.221C192.927 269.198 192.896 269.168 192.871 269.133C192.846 269.097 192.829 269.057 192.82 269.015C192.811 268.973 192.811 268.929 192.819 268.887C192.826 268.844 192.841 268.803 192.864 268.766C192.887 268.729 192.917 268.697 192.952 268.672C192.987 268.647 193.027 268.628 193.07 268.619C193.112 268.609 193.156 268.607 193.198 268.615C194.352 268.84 195.428 269.359 196.322 270.123C197.215 270.888 197.895 271.87 198.296 272.975C198.31 273.016 198.315 273.06 198.311 273.103C198.307 273.147 198.295 273.189 198.275 273.227C198.255 273.266 198.228 273.3 198.195 273.328C198.161 273.356 198.123 273.377 198.081 273.39C198.05 273.405 198.016 273.412 197.981 273.412Z" fill="#FAFAFA"/>
<path d="M196.184 275.187C196.116 275.188 196.049 275.167 195.994 275.127C195.938 275.087 195.897 275.03 195.876 274.965C194.781 271.672 191.329 271.049 191.294 271.042C191.247 271.04 191.201 271.028 191.159 271.008C191.117 270.987 191.08 270.957 191.051 270.921C191.021 270.885 190.999 270.842 190.987 270.797C190.975 270.752 190.973 270.705 190.981 270.659C190.988 270.612 191.006 270.568 191.032 270.529C191.058 270.491 191.092 270.458 191.132 270.433C191.172 270.408 191.216 270.392 191.263 270.386C191.309 270.38 191.356 270.384 191.401 270.397C192.556 270.62 193.633 271.139 194.526 271.904C195.42 272.668 196.1 273.652 196.499 274.758C196.526 274.84 196.52 274.93 196.481 275.008C196.442 275.086 196.374 275.145 196.291 275.173L196.184 275.187Z" fill="#FAFAFA"/>
<path d="M179.236 278.889C179.236 282.512 182.623 285.111 187.828 285.169L195.239 282.197C195.239 274.514 190.041 271.908 190.041 271.908C190.041 271.908 179.236 275.23 179.236 278.889Z" fill="#EBEBEB"/>
<path d="M210.217 276.97C208.95 277.951 206.258 279.462 201.518 279.67C199.85 279.741 193.205 283.966 187.671 283.966C183.876 283.966 180.983 282.677 179.537 280.622C180.475 283.336 183.597 285.14 187.986 285.14C193.277 285.14 199.635 281.066 201.225 280.994C205.757 280.801 208.327 279.362 209.544 278.424C209.797 278.227 210.003 277.978 210.149 277.694C210.295 277.409 210.377 277.096 210.389 276.777C210.337 276.845 210.279 276.91 210.217 276.97Z" fill="#263238"/>
<path d="M200.874 162.052C200.874 162.052 201.912 170.888 208.685 175.556L214.664 205.535L218.502 168.052L200.874 162.052Z" fill="#263238"/>
<path d="M239.787 254.992L228.487 255.875L230.275 278.753L241.575 277.87L239.787 254.992Z" fill="#EFD3BE"/>
<path d="M235.442 157.52C235.442 157.52 236.81 162.697 237.468 184.055C237.998 200.981 238.392 210.719 238.535 214.027C238.57 214.85 238.659 215.671 238.8 216.483C240.192 225.018 241.124 233.623 241.593 242.259C242.559 258.727 242.638 266.524 242.638 266.524C242.638 266.524 235.65 271.987 227.215 267.698L219.053 218.623L210.461 173.079C210.461 173.079 198.683 168.589 197.645 156.611L235.442 157.52Z" fill="#37474F"/>
<path d="M241.17 272.624L241.349 274.858C241.349 274.858 240.003 276.748 238.414 277.3C238.414 277.3 237.196 272.853 235.041 272.624C232.886 272.395 228.411 272.195 229.013 274.672C229.348 275.964 229.557 277.285 229.636 278.617L225.483 286.357C225.483 286.357 217.055 293.617 220.578 298.243C224.101 302.868 235.922 300.391 237.089 293.13C237.276 292.037 237.687 290.993 238.295 290.066C238.904 289.138 239.697 288.346 240.626 287.739C241.388 287.258 241.988 286.559 242.347 285.733C242.706 284.907 242.807 283.991 242.638 283.106C242.423 281.445 241.922 278.252 242.072 276.813C242.223 275.374 242.624 272.646 241.17 272.624Z" fill="#37474F"/>
<path d="M220.578 298.243C223.507 302.088 232.142 301.035 235.664 296.41C235.819 295.658 235.896 294.893 235.893 294.126C235.893 285.856 225.483 286.357 225.483 286.357C225.483 286.357 217.055 293.617 220.578 298.243Z" fill="#EBEBEB"/>
<path d="M242.638 283.106C242.638 282.985 242.602 282.841 242.581 282.698C242.5 283.36 242.27 283.994 241.909 284.555C241.549 285.115 241.066 285.587 240.497 285.935C239.537 286.563 238.718 287.383 238.089 288.342C237.461 289.302 237.038 290.381 236.846 291.512C235.657 298.944 223.7 301.536 219.905 296.947C220.051 297.415 220.279 297.854 220.578 298.243C224.101 302.875 235.922 300.391 237.089 293.13C237.276 292.037 237.686 290.993 238.295 290.066C238.904 289.138 239.697 288.346 240.626 287.739C241.388 287.258 241.988 286.559 242.347 285.733C242.706 284.907 242.807 283.991 242.638 283.106Z" fill="#263238"/>
<path d="M235.757 280.343C235.673 280.344 235.591 280.313 235.528 280.257C233.008 277.872 229.671 278.954 229.635 278.968C229.594 278.986 229.548 278.995 229.503 278.994C229.458 278.994 229.413 278.984 229.371 278.965C229.33 278.946 229.293 278.919 229.262 278.885C229.232 278.852 229.209 278.812 229.194 278.769C229.18 278.726 229.174 278.68 229.179 278.635C229.183 278.59 229.196 278.546 229.218 278.506C229.24 278.466 229.27 278.431 229.306 278.403C229.342 278.376 229.384 278.356 229.428 278.345C230.55 277.995 231.744 277.943 232.893 278.194C234.041 278.445 235.105 278.991 235.979 279.777C236.011 279.807 236.036 279.843 236.053 279.883C236.07 279.923 236.078 279.966 236.078 280.01C236.078 280.053 236.07 280.096 236.053 280.136C236.036 280.176 236.011 280.212 235.979 280.242C235.92 280.302 235.841 280.338 235.757 280.343Z" fill="#FAFAFA"/>
<path d="M234.311 283.214C234.229 283.213 234.15 283.183 234.089 283.128C231.569 280.744 228.232 281.825 228.196 281.839C228.113 281.867 228.022 281.86 227.943 281.82C227.865 281.781 227.805 281.711 227.777 281.628C227.75 281.544 227.757 281.453 227.796 281.375C227.836 281.296 227.905 281.237 227.989 281.209C229.111 280.863 230.305 280.813 231.453 281.064C232.601 281.314 233.664 281.858 234.54 282.641C234.6 282.704 234.633 282.787 234.633 282.874C234.633 282.96 234.6 283.044 234.54 283.106C234.48 283.17 234.398 283.208 234.311 283.214Z" fill="#FAFAFA"/>
<path d="M232.872 286.085C232.79 286.084 232.711 286.054 232.65 285.999C230.13 283.615 226.793 284.696 226.757 284.71C226.674 284.738 226.583 284.731 226.504 284.691C226.426 284.652 226.366 284.583 226.338 284.499C226.311 284.415 226.318 284.324 226.357 284.246C226.397 284.167 226.466 284.108 226.55 284.08C227.672 283.732 228.866 283.681 230.014 283.932C231.163 284.183 232.226 284.727 233.101 285.512C233.161 285.575 233.194 285.658 233.194 285.745C233.194 285.832 233.161 285.915 233.101 285.978C233.041 286.041 232.959 286.079 232.872 286.085Z" fill="#FAFAFA"/>
<path d="M160.427 64.8696C159.746 61.9805 159.267 59.0473 158.995 56.0914C158.823 52.6332 157.821 51.4231 155.708 53.1558C153.596 54.8886 148.785 59.9149 149.071 63.8314C149.305 68.1713 150.686 72.3714 153.074 76.0034L159.231 77.865L161.694 72.81L160.427 64.8696Z" fill="#EFD3BE"/>
<path d="M187.119 96.1731L174.783 93.4452C174.783 93.4452 169.527 84.9319 166.484 80.4426C163.441 75.9533 161.716 72.8458 161.716 72.8458L155.988 71.106L153.066 76.0392C153.066 76.0392 162.668 99.9035 167.121 103.963C169.363 105.982 183.84 110.464 183.84 110.464C183.84 110.464 189.919 104.049 187.119 96.1731Z" fill="#EFD3BE"/>
<path d="M202.671 99.524L187.119 96.1731C186.908 101.085 185.807 105.918 183.869 110.436L199.492 115.276L202.671 99.524Z" fill="#5C6B82"/>
<path opacity="0.3" d="M202.671 99.524L187.119 96.1731C186.908 101.085 185.807 105.918 183.869 110.436L199.492 115.276L202.671 99.524Z" fill="white"/>
<path d="M224.244 101.393L231.476 103.67L235.442 125.064L233.094 135.439C232.772 136.848 232.712 138.304 232.915 139.735L235.442 157.52C235.442 157.52 228.282 162.088 215.115 162.088C201.948 162.088 194.308 156.625 194.308 156.625L195.303 116.257C195.675 109.977 198.289 104.039 202.671 99.524L211.642 100.562L224.244 101.393Z" fill="#5C6B82"/>
<path d="M201.447 67.4329C201.447 67.4329 194.537 73.4974 200.544 87.0155L207.568 68.736L201.447 67.4329Z" fill="#263238"/>
<path d="M224.244 101.393L215.537 104.192L211.642 100.562V84.2445H224.244V101.393Z" fill="#EFD3BE"/>
<path d="M211.642 99.5239C215.895 99.5239 222.382 95.7363 222.382 93.0799L223.814 84.223H211.642V99.5239Z" fill="#DDA877"/>
<path d="M214.993 63.724C210.754 63.724 201.74 66.0868 200.673 77.1776C199.606 88.2685 201.26 97.7125 206.365 97.7125C216.389 97.7125 226.027 96.438 226.106 80.0273C226.191 65.514 219.132 63.724 214.993 63.724Z" fill="#EFD3BE"/>
<path d="M224.244 89.7149L222.612 84.7029C222.489 84.806 222.34 84.8722 222.181 84.8938C222.022 84.9153 221.861 84.8913 221.715 84.8245C221.569 84.7577 221.446 84.6509 221.359 84.5165C221.271 84.3822 221.224 84.2258 221.223 84.0656V75.1156C221.223 75.1156 217.055 73.9342 217.499 70.4258C217.499 70.4258 215.351 72.3375 207.182 72.3375C199.012 72.3375 197.015 65.3995 197.831 61.576C197.831 61.576 199.349 63.1441 203.673 63.1441C207.998 63.1441 226.005 57.7097 226.471 68.5857C226.471 68.5857 227.989 66.3589 230.445 68.5857L227.287 70.4616C227.287 70.4616 231.032 70.347 230.445 75.8388C230.065 79.4188 228.741 85.784 227.881 89.6862C227.401 91.8665 226.098 93.7774 224.244 95.0204V89.7149Z" fill="#263238"/>
<path d="M208.793 80.4784V87.6026L204.618 86.321L208.793 80.4784Z" fill="#DDA877"/>
<path d="M215.423 81.624C215.421 81.887 215.342 82.1438 215.195 82.3619C215.048 82.5799 214.839 82.7495 214.596 82.8492C214.352 82.9489 214.085 82.9743 213.827 82.9221C213.569 82.8699 213.332 82.7425 213.147 82.556C212.961 82.3694 212.835 82.1321 212.784 81.874C212.734 81.6158 212.76 81.3484 212.861 81.1055C212.962 80.8626 213.133 80.655 213.352 80.509C213.571 80.363 213.828 80.285 214.091 80.285C214.267 80.285 214.44 80.3197 214.602 80.3871C214.764 80.4545 214.912 80.5532 215.035 80.6776C215.159 80.8021 215.257 80.9497 215.323 81.1121C215.39 81.2745 215.424 81.4485 215.423 81.624Z" fill="#263238"/>
<path d="M205.449 80.6789C205.449 80.9423 205.371 81.1998 205.224 81.4188C205.078 81.6378 204.87 81.8085 204.627 81.9093C204.383 82.0101 204.116 82.0365 203.857 81.9851C203.599 81.9337 203.362 81.8069 203.175 81.6206C202.989 81.4344 202.862 81.1971 202.811 80.9387C202.76 80.6804 202.786 80.4126 202.887 80.1693C202.988 79.9259 203.158 79.7179 203.377 79.5716C203.596 79.4253 203.854 79.3472 204.117 79.3472C204.47 79.3472 204.809 79.4875 205.059 79.7372C205.309 79.987 205.449 80.3257 205.449 80.6789Z" fill="#263238"/>
<path d="M202.492 77.9008L205.098 76.3542C205.098 76.3542 204.096 75.316 203.1 75.9389C202.105 76.5618 202.492 77.9008 202.492 77.9008Z" fill="#263238"/>
<path d="M216.805 78.8675L214.191 77.3281C214.191 77.3281 215.194 76.2899 216.189 76.9128C217.184 77.5357 216.805 78.8675 216.805 78.8675Z" fill="#263238"/>
<path d="M209.129 91.0251C209.129 91.0251 211.062 89.7865 212.924 88.3903C212.924 88.3903 214.005 90.4953 212.301 91.5836C210.597 92.6719 209.129 91.0251 209.129 91.0251Z" fill="#DDA877"/>
<path d="M222.497 84.7744L227.108 79.7767L223.793 77.7863L222.497 84.7744Z" fill="#253239"/>
<path d="M223.256 82.8269C221.745 85.4474 222.139 88.6265 224.244 89.7148C225.597 90.4308 229.593 88.9057 231.103 86.2852C232.614 83.6646 231.769 81.4235 229.714 80.2421C227.659 79.0607 224.767 80.192 223.256 82.8269Z" fill="#EFD3BE"/>
<path d="M211.642 100.562L209.924 103.29C209.592 103.815 209.375 104.404 209.287 105.018C209.198 105.633 209.24 106.259 209.409 106.856C209.579 107.453 209.872 108.008 210.271 108.484C210.669 108.96 211.163 109.347 211.721 109.62C212.735 110.113 213.841 110.389 214.968 110.43C216.095 110.47 217.218 110.275 218.265 109.856C219.312 109.438 220.26 108.805 221.048 107.998C221.836 107.192 222.446 106.23 222.841 105.173L224.273 101.393L217.972 99.1373L211.642 100.562Z" fill="#EFD3BE"/>
<path d="M161.716 72.8458C161.716 72.8458 163.821 69.6381 163.785 66.5951C163.749 63.5521 164.129 62.1416 164.651 61.4113C165.174 60.681 164.587 59.6141 163.183 59.9793C161.995 60.3015 160.527 62.1273 160.205 63.8099C160.158 64.0776 160.052 64.3314 159.895 64.5531C159.737 64.7748 159.533 64.9587 159.296 65.0915C157.813 65.8863 155.05 68.1632 156.36 73.6835L161.716 72.8458Z" fill="#EFD3BE"/>
<path d="M156.088 69.9246C156.022 69.914 155.964 69.878 155.925 69.8243C155.886 69.7706 155.87 69.7037 155.88 69.6382C156.018 68.642 156.388 67.6923 156.962 66.8662C157.535 66.0401 158.296 65.361 159.181 64.884C159.388 64.7729 159.567 64.6156 159.703 64.4244C159.84 64.2332 159.931 64.0132 159.969 63.7813C159.982 63.717 160.021 63.6607 160.076 63.6246C160.131 63.5884 160.198 63.5753 160.262 63.588C160.294 63.594 160.324 63.6062 160.351 63.6239C160.377 63.6415 160.4 63.6643 160.418 63.691C160.436 63.7176 160.449 63.7475 160.455 63.779C160.462 63.8105 160.462 63.8429 160.455 63.8744C160.401 64.1757 160.279 64.4608 160.1 64.7087C159.92 64.9566 159.687 65.1609 159.417 65.3064C158.598 65.747 157.895 66.3749 157.365 67.1389C156.835 67.9029 156.493 68.7813 156.367 69.7026C156.365 69.736 156.355 69.7685 156.339 69.7981C156.324 69.8276 156.302 69.8537 156.276 69.8745C156.25 69.8953 156.219 69.9105 156.187 69.9191C156.155 69.9278 156.121 69.9296 156.088 69.9246Z" fill="#DDA877"/>
<path d="M232.535 130.047L235.714 136.749L252.032 143.207L245.452 123.267L232.535 130.047Z" fill="#EFD3BE"/>
<path d="M230.509 103.369C230.509 103.369 225.067 108.961 227.423 116.844C228.748 121.382 230.459 125.799 232.535 130.047C232.535 130.047 241.707 130.319 245.423 123.267L240.748 111.467C240.01 109.612 238.849 107.955 237.358 106.628C235.866 105.302 234.084 104.342 232.156 103.827L230.509 103.369Z" fill="#5C6B82"/>
<path opacity="0.3" d="M230.509 103.369C230.509 103.369 225.067 108.961 227.423 116.844C228.748 121.382 230.459 125.799 232.535 130.047C232.535 130.047 241.707 130.319 245.423 123.267L240.748 111.467C240.01 109.612 238.849 107.955 237.358 106.628C235.866 105.302 234.084 104.342 232.156 103.827L230.509 103.369Z" fill="white"/>
<path d="M234.798 135.503C238.922 136.713 251.08 140.315 251.08 140.315C251.08 140.315 251.173 140.579 252.032 143.179C253.349 147.224 249.168 157.012 234.361 149.909C219.554 142.806 214.148 139.004 214.148 139.004L215.759 130.018C215.759 130.018 230.094 134.121 234.798 135.503Z" fill="#EFD3BE"/>
<path d="M235.235 135.711L242.903 137.923L234.318 133.777L235.235 135.711Z" fill="#DDA877"/>
<path d="M213.468 143.064L203.845 142.04C203.5 142.005 203.174 141.865 202.911 141.64C202.647 141.415 202.459 141.115 202.37 140.78L197.115 121.004C197.079 120.869 197.075 120.727 197.104 120.59C197.133 120.453 197.194 120.325 197.282 120.216C197.37 120.107 197.482 120.02 197.61 119.963C197.738 119.906 197.877 119.88 198.017 119.887L207.325 120.324C207.671 120.338 208.004 120.462 208.274 120.679C208.545 120.895 208.739 121.192 208.829 121.527L214.428 141.954C214.463 142.094 214.464 142.24 214.431 142.38C214.398 142.52 214.331 142.65 214.237 142.759C214.143 142.868 214.024 142.952 213.89 143.006C213.756 143.059 213.612 143.079 213.468 143.064Z" fill="#37474F"/>
<path d="M200.874 122.787C200.874 122.951 200.825 123.112 200.733 123.249C200.642 123.386 200.512 123.492 200.359 123.555C200.207 123.618 200.04 123.634 199.879 123.601C199.717 123.568 199.569 123.488 199.453 123.372C199.338 123.255 199.259 123.106 199.228 122.944C199.197 122.783 199.214 122.616 199.278 122.464C199.342 122.312 199.449 122.183 199.587 122.093C199.725 122.002 199.886 121.955 200.05 121.956C200.269 121.958 200.479 122.047 200.633 122.202C200.787 122.358 200.874 122.568 200.874 122.787Z" fill="#263238"/>
<path d="M215.759 130.047C215.759 130.047 212.974 125.207 209.516 124.033L210.898 129.353C210.898 129.353 208.27 129.56 205.299 129.56C202.327 129.56 199.077 127.555 198.139 127.04C197.201 126.524 196.327 130.119 200.065 136.892C203.802 143.665 214.177 139.04 214.177 139.04L215.759 130.047Z" fill="#EFD3BE"/>
<path d="M257.803 32.6711L262.987 35.621V33.7881C262.987 33.6592 262.987 33.5231 262.987 33.4014C262.987 33.2797 262.987 33.1508 262.987 33.0291V32.9861C263.173 30.5517 265.013 29.6209 267.283 30.9169C268.3 31.5442 269.172 32.3815 269.839 33.3728C270.347 30.072 273.04 28.8763 276.283 30.7594C279.892 32.8429 282.82 37.948 282.82 42.1008V46.0317C282.823 46.3431 282.906 46.6485 283.061 46.9182C283.217 47.188 283.44 47.4129 283.708 47.5711L286.751 49.3539C287.408 49.7455 287.951 50.3014 288.328 50.9667C288.704 51.6321 288.901 52.3841 288.899 53.1487C288.897 53.4663 288.812 53.7779 288.652 54.0524C288.492 54.3269 288.264 54.5548 287.988 54.7134C287.713 54.8719 287.401 54.9557 287.084 54.9563C286.766 54.9569 286.454 54.8743 286.178 54.7167L257.882 38.349C257.129 37.9133 256.504 37.2868 256.07 36.5325C255.636 35.7783 255.409 34.923 255.412 34.053C255.414 33.7741 255.49 33.5008 255.63 33.26C255.771 33.0191 255.972 32.819 256.213 32.6795C256.454 32.54 256.728 32.4659 257.007 32.4644C257.286 32.4629 257.56 32.5341 257.803 32.6711Z" fill="#E6E6E6"/>
<path d="M280.271 65.6429L284.102 67.7909V66.4663C284.102 66.366 284.102 66.273 284.102 66.1799C284.102 66.0868 284.102 65.9937 284.102 65.9006C284.238 64.1035 285.598 63.4161 287.259 64.3756C288.013 64.836 288.658 65.454 289.15 66.187C289.522 63.7455 291.512 62.8648 293.925 64.2538C295.333 65.1756 296.505 66.4153 297.345 67.8729C298.186 69.3305 298.673 70.9652 298.766 72.6454V75.5523C298.766 75.7823 298.826 76.0082 298.94 76.2079C299.055 76.4075 299.219 76.5739 299.417 76.6908L301.672 78.0082C302.161 78.296 302.566 78.7063 302.847 79.1986C303.128 79.6908 303.276 80.248 303.276 80.8149C303.276 81.0495 303.214 81.2798 303.097 81.4829C302.98 81.686 302.811 81.8547 302.608 81.9722C302.405 82.0896 302.175 82.1517 301.94 82.1522C301.706 82.1526 301.475 82.0915 301.272 81.9748L280.329 69.8386C279.777 69.5152 279.32 69.0527 279.004 68.4974C278.687 67.942 278.522 67.3132 278.524 66.6739C278.525 66.4695 278.579 66.2689 278.681 66.0916C278.783 65.9143 278.929 65.7665 279.105 65.6626C279.281 65.5587 279.481 65.5023 279.686 65.4988C279.89 65.4954 280.092 65.545 280.271 65.6429Z" fill="#E6E6E6"/>
</svg>
